<?xml version="1.0" standalone="no"?>
<!DOCTYPE svg PUBLIC "-//W3C//DTD SVG 20010904//EN"
 "http://www.w3.org/TR/2001/REC-SVG-20010904/DTD/svg10.dtd">
<svg version="1.0" xmlns="http://www.w3.org/2000/svg"
 width="24.000000pt" height="24.000000pt" viewBox="0 0 24.000000 24.000000"
 preserveAspectRatio="xMidYMid meet">

<g transform="translate(0.000000,24.000000) scale(0.100000,-0.100000)"
fill="#000000" stroke="none">
<path d="M80 233 c-41 -16 -89 -83 -60 -83 6 0 10 5 10 10 0 6 7 10 15 10 8 0
15 -5 15 -12 0 -9 3 -9 12 0 16 16 80 16 96 0 9 -9 12 -9 12 0 0 7 7 12 15 12
8 0 15 -4 15 -10 0 -5 5 -10 10 -10 19 0 10 26 -19 54 -29 28 -89 42 -121 29z
m54 -19 c26 -10 18 -24 -14 -24 -29 0 -38 9 -23 23 8 9 17 9 37 1z"/>
<path d="M13 125 c3 -27 51 -27 55 0 2 15 1 17 -6 6 -8 -11 -10 -11 -15 0 -5
12 -7 12 -15 0 -8 -11 -11 -11 -16 0 -3 8 -5 6 -3 -6z"/>
<path d="M93 125 c1 -13 10 -19 27 -19 17 0 26 6 28 19 2 15 1 17 -6 6 -8 -11
-10 -11 -15 0 -5 12 -7 12 -15 0 -8 -11 -11 -11 -16 0 -3 8 -5 6 -3 -6z"/>
<path d="M173 125 c1 -13 10 -19 27 -19 17 0 26 6 28 19 2 15 1 17 -6 6 -8
-11 -10 -11 -15 0 -5 12 -7 12 -15 0 -8 -11 -11 -11 -16 0 -3 8 -5 6 -3 -6z"/>
<path d="M10 77 c0 -7 14 -26 31 -43 25 -24 39 -29 79 -29 40 0 54 5 79 29 31
29 40 56 21 56 -5 0 -10 -4 -10 -10 0 -5 -7 -10 -15 -10 -8 0 -15 5 -15 12 0
9 -3 9 -12 0 -16 -16 -80 -16 -96 0 -9 9 -12 9 -12 0 0 -7 -7 -12 -15 -12 -8
0 -15 5 -15 10 0 6 -4 10 -10 10 -5 0 -10 -6 -10 -13z m140 -36 c0 -13 -27
-21 -45 -15 -25 10 -17 24 15 24 17 0 30 -4 30 -9z"/>
</g>
</svg>
